<svg width="1440" height="1060" viewBox="0 0 1440 1060" fill="none" xmlns="http://www.w3.org/2000/svg">
<g filter="url(#filter0_f)">
<path d="M1336.97 551.926C1495.54 551.926 1624.09 421.29 1624.09 260.141C1624.09 98.9933 1495.54 -31.6431 1336.97 -31.6431C1178.4 -31.6431 1049.85 98.9933 1049.85 260.141C1049.85 421.29 1178.4 551.926 1336.97 551.926Z" fill="#0D6A53"/>
<path d="M732.119 392.624C890.69 392.624 1019.24 261.988 1019.24 100.84C1019.24 -60.3082 890.69 -190.945 732.119 -190.945C573.547 -190.945 445 -60.3082 445 100.84C445 261.988 573.547 392.624 732.119 392.624Z" fill="black"/>
<path d="M1290.52 288.569C1449.09 288.569 1577.64 157.933 1577.64 -3.21552C1577.64 -164.364 1449.09 -295 1290.52 -295C1131.95 -295 1003.4 -164.364 1003.4 -3.21552C1003.4 157.933 1131.95 288.569 1290.52 288.569Z" fill="#0D6A53"/>
<path d="M916.318 569.09C1074.89 569.09 1203.44 438.453 1203.44 277.305C1203.44 116.157 1074.89 -14.4792 916.318 -14.4792C757.747 -14.4792 629.199 116.157 629.199 277.305C629.199 438.453 757.747 569.09 916.318 569.09Z" fill="#0D6A53"/>
<path d="M896.79 411.934C1055.36 411.934 1183.91 281.297 1183.91 120.149C1183.91 -40.9989 1055.36 -171.635 896.79 -171.635C738.218 -171.635 609.671 -40.9989 609.671 120.149C609.671 281.297 738.218 411.934 896.79 411.934Z" fill="black"/>
<path d="M1146.96 565.871C1305.53 565.871 1434.08 435.235 1434.08 274.087C1434.08 112.939 1305.53 -17.6975 1146.96 -17.6975C988.392 -17.6975 859.844 112.939 859.844 274.087C859.844 435.235 988.392 565.871 1146.96 565.871Z" fill="#0D6A53"/>
</g>
<defs>
<filter id="filter0_f" x="-45" y="-785" width="2159.09" height="1844.09" filterUnits="userSpaceOnUse" color-interpolation-filters="sRGB">
<feFlood flood-opacity="0" result="BackgroundImageFix"/>
<feBlend mode="normal" in="SourceGraphic" in2="BackgroundImageFix" result="shape"/>
<feGaussianBlur stdDeviation="245" result="effect1_foregroundBlur"/>
</filter>
</defs>
</svg>
